<?xml version="1.0" encoding="iso-8859-1"?>
<!-- Generator: Adobe Illustrator 18.0.0, SVG Export Plug-In . SVG Version: 6.00 Build 0)  -->
<!DOCTYPE svg PUBLIC "-//W3C//DTD SVG 1.1//EN" "http://www.w3.org/Graphics/SVG/1.1/DTD/svg11.dtd">
<svg version="1.1" id="Capa_1" xmlns="http://www.w3.org/2000/svg" xmlns:xlink="http://www.w3.org/1999/xlink" x="0px" y="0px"
	 viewBox="0 0 420.326 420.326" style="enable-background:new 0 0 420.326 420.326;" xml:space="preserve">
<g>
	<path d="M228.053,116.191C228.532,116.243,227.597,116.067,228.053,116.191L228.053,116.191z"/>
	<path d="M415.501,229.82l-101.146-52.965c-2.592-11.371-8.942-25.952-24.06-38.143c-15.015-12.109-35.906-19.814-62.242-22.521
		L27.658,94.656c-4.641-0.505-8.891,2.623-9.797,7.198c-0.113,0.571-2.711,14.166,2.438,30.739
		c2.181,7.02,5.985,15.256,12.577,23.378l-26.269,7.247c-4.612,1.272-7.423,5.931-6.397,10.604
		c0.122,0.556,3.114,13.764,14.148,26.747c7.718,9.082,20.66,19.491,41.182,23.883c-18.63,40.612-24.831,77.128-25.109,78.809
		c-0.406,2.45,0.219,4.96,1.726,6.934c1.508,1.974,3.764,3.237,6.234,3.49l116.955,11.99c0.311,0.032,0.618,0.047,0.925,0.047
		c4.063,0,7.679-2.749,8.71-6.759c6.019-23.404,17.513-54.518,47.719-54.518c15.748,0,33.407,7.798,48.724,15.107
		c21.949,10.475,42.852,15.786,62.125,15.786c35.848,0,56.374-18.09,63.731-26.137c26.525-1.407,32.873-22.809,33.043-31.227
		C420.393,234.562,418.525,231.403,415.501,229.82z M285.544,193.069c-2.1,2.273-4.959,3.593-8.051,3.715
		c-0.154,0.006-0.309,0.009-0.462,0.009c-6.243,0-11.327-4.887-11.575-11.126c-0.249-6.385,4.737-11.782,11.115-12.037
		c0.158-0.006,0.312-0.009,0.463-0.009c6.243,0,11.328,4.887,11.576,11.126C288.732,187.841,287.643,190.796,285.544,193.069z"/>
</g>
<g>
</g>
<g>
</g>
<g>
</g>
<g>
</g>
<g>
</g>
<g>
</g>
<g>
</g>
<g>
</g>
<g>
</g>
<g>
</g>
<g>
</g>
<g>
</g>
<g>
</g>
<g>
</g>
<g>
</g>
</svg>
