<?xml version="1.0" encoding="UTF-8"?>
<svg xmlns="http://www.w3.org/2000/svg" xmlns:xlink="http://www.w3.org/1999/xlink" version="1.1" id="Capa_1" x="0px" y="0px" viewBox="0 0 512.001 512.001" style="enable-background:new 0 0 512.001 512.001;" xml:space="preserve" width="512" height="512" class=""><g><g>
	<path style="fill:#CCCACB" d="M262.205,269.776c-1.919,0-3.839-0.732-5.303-2.196L56.413,67.092c-2.929-2.93-2.929-7.678,0-10.607   c2.929-2.928,7.678-2.928,10.606,0l200.488,200.488c2.929,2.93,2.929,7.678,0,10.607   C266.043,269.044,264.124,269.776,262.205,269.776z" data-original="#EFEDEE" class="active-path" data-old_color="#EFEDEE"></path>
	<path style="fill:#CCCACB" d="M128.314,284.709c-1.923,0-3.847-0.735-5.312-2.205c-2.924-2.934-2.917-7.683,0.017-10.606   l112.23-111.87c2.934-2.925,7.683-2.916,10.607,0.017c2.924,2.934,2.917,7.683-0.017,10.606l-112.23,111.87   C132.145,283.979,130.229,284.709,128.314,284.709z" data-original="#EFEDEE" class="active-path" data-old_color="#EFEDEE"></path>
	<path style="fill:#CCCACB" d="M240.544,167.173c-1.925,0-3.85-0.736-5.316-2.209L110.608,39.757   c-2.922-2.936-2.911-7.685,0.025-10.606c2.935-2.923,7.684-2.912,10.607,0.024l124.62,125.207   c2.922,2.936,2.911,7.685-0.025,10.606C244.372,166.445,242.458,167.173,240.544,167.173z" data-original="#EFEDEE" class="active-path" data-old_color="#EFEDEE"></path>
	<path style="fill:#CCCACB" d="M207.996,297.098c-1.919,0-3.839-0.732-5.303-2.196L29.09,121.299c-2.929-2.93-2.929-7.678,0-10.607   c2.929-2.928,7.678-2.928,10.606,0l173.603,173.603c2.929,2.93,2.929,7.678,0,10.607   C211.835,296.365,209.916,297.098,207.996,297.098z" data-original="#EFEDEE" class="active-path" data-old_color="#EFEDEE"></path>
	<path style="fill:#CCCACB" d="M80.735,250.758c-1.919,0-3.839-0.732-5.303-2.196c-2.929-2.93-2.929-7.678,0-10.607L238.188,75.198   c2.929-2.928,7.678-2.928,10.606,0c2.929,2.93,2.929,7.678,0,10.607L86.038,248.562C84.574,250.025,82.654,250.758,80.735,250.758z   " data-original="#EFEDEE" class="active-path" data-old_color="#EFEDEE"></path>
	<path style="fill:#CCCACB" d="M46.784,203.179c-1.919,0-3.839-0.732-5.303-2.196c-2.929-2.93-2.929-7.678,0-10.607L190.376,41.479   c2.929-2.928,7.678-2.928,10.606,0c2.929,2.93,2.929,7.678,0,10.607L52.087,200.982C50.623,202.446,48.703,203.179,46.784,203.179z   " data-original="#EFEDEE" class="active-path" data-old_color="#EFEDEE"></path>
	
		<rect x="345.073" y="326.901" transform="matrix(0.7071 -0.7071 0.7071 0.7071 -153.8262 371.3718)" style="fill:#CCCACB" width="52.598" height="88.939" data-original="#EFEDEE" class="active-path" data-old_color="#EFEDEE"></rect>
</g><rect x="348.986" y="336.365" transform="matrix(0.7071 -0.7071 0.7071 0.7071 -163.2928 367.4446)" style="fill:#B4B1B3" width="25.825" height="88.939" data-original="#D4D2D3" class="" data-old_color="#D4D2D3"></rect><path style="fill:#3A484A;" d="M266.783,57.21C198.555-11.017,96.332-19.412,38.46,38.46s-49.478,160.095,18.75,228.322  c11.285,11.285,23.503,20.922,36.293,28.904c93.664,60.7,239.953,74.962,239.953,74.962l18.597-18.597l18.597-18.597  c0,0-14.271-146.381-75.02-240.041c-7.017-11.231-15.317-22.017-24.885-32.118c-0.008-0.009-0.017-0.018-0.025-0.027  c-1.16-1.224-2.335-2.44-3.532-3.644c-0.136-0.137-0.268-0.28-0.404-0.417L266.783,57.21z M318.82,235.651  c9.472,36.131,14.683,68.022,17.166,85.883l-14.442,14.442c-18.077-2.52-50.492-7.822-86.859-17.412  c-1.05-0.277-2.07-0.566-3.112-0.846c20.132-6.146,38.607-16.833,53.959-32.186c15.352-15.352,26.04-33.827,32.186-53.959  C318.084,232.936,318.46,234.276,318.82,235.651z M262.24,262.24c-44.936,44.936-126.464,36.525-181.738-18.749  c-55.275-55.275-63.686-136.803-18.75-181.739s126.464-36.525,181.739,18.75C298.765,135.776,307.176,217.305,262.24,262.24z" data-original="#3A484A" class=""></path><path style="fill:#313D40;" d="M234.686,318.564c-1.05-0.277-2.07-0.566-3.112-0.846c0.496-0.151,0.986-0.318,1.48-0.475  c-26.825-7.98-54.859-18.208-80.869-31.197c-25.393-7.042-50.471-21.344-71.683-42.555c-25.475-25.475-40.987-56.526-45.919-87.002  c-13.742-46.317-7.911-94.488,18.622-130.675c-5.173,3.793-10.104,8.003-14.746,12.646c-57.872,57.872-49.478,160.095,18.75,228.323  c11.285,11.285,23.503,20.922,36.294,28.903c93.664,60.7,239.953,74.962,239.953,74.962l18.597-18.597l8.795-8.795  c0,0-43.502-4.243-98.248-17.942C253.698,323.345,244.338,321.11,234.686,318.564z" data-original="#313D40" class=""></path><path style="fill:#3A484A;" d="M509.495,475.01l-34.483,34.483c-3.342,3.342-8.76,3.342-12.101,0l-90.384-90.384  c-3.342-3.342-3.342-8.76,0-12.101l34.483-34.483c3.342-3.342,8.76-3.342,12.101,0l90.384,90.384  C512.836,466.25,512.836,471.668,509.495,475.01z" data-original="#3A484A" class=""></path><path style="fill:#313D40;" d="M481.171,491.231l-90.384-90.384c-3.342-3.342-3.341-8.76,0-12.101l-18.261,18.261  c-3.342,3.342-3.342,8.76,0,12.101l90.384,90.384c3.342,3.342,8.76,3.342,12.102,0l18.261-18.261  C489.931,494.573,484.513,494.573,481.171,491.231z" data-original="#313D40" class=""></path><circle style="fill:#69E781" cx="349.761" cy="170.56" r="118.66" data-original="#2FC8B4" class="" data-old_color="#2FC8B4"></circle><path style="fill:#4FBA63" d="M262.01,170.563c0-60.294,44.973-110.081,103.203-117.655c-5.058-0.658-10.215-1.001-15.453-1.001  c-65.532,0-118.656,53.124-118.656,118.656s53.124,118.656,118.656,118.656c5.237,0,10.395-0.343,15.453-1.001  C306.983,280.643,262.01,230.857,262.01,170.563z" data-original="#00AE95" class="" data-old_color="#00AE95"></path><g>
	<path style="fill:#CCCACB" d="M437.555,250.383c-0.006-0.006-0.01-0.012-0.016-0.017c-21.847-21.099-33.879-49.441-33.879-79.804   s12.032-58.704,33.879-79.804c0.005-0.005,0.01-0.011,0.015-0.017c-3.469-3.813-7.189-7.394-11.123-10.729   c-24.651,23.997-38.225,56.132-38.225,90.549c0,34.419,13.573,66.552,38.225,90.55   C430.366,257.777,434.086,254.197,437.555,250.383z" data-original="#EFEDEE" class="active-path" data-old_color="#EFEDEE"></path>
	<path style="fill:#CCCACB" d="M261.98,90.727c0.006,0.006,0.012,0.013,0.018,0.019c21.856,21.1,33.892,49.446,33.892,79.816   c0,30.371-12.037,58.718-33.894,79.819c-0.006,0.005-0.01,0.011-0.016,0.017c3.47,3.813,7.19,7.393,11.125,10.727   c24.66-23.999,38.238-56.137,38.238-90.563c0-34.425-13.578-66.563-38.238-90.562C269.17,83.334,265.45,86.914,261.98,90.727z" data-original="#EFEDEE" class="active-path" data-old_color="#EFEDEE"></path>
</g><g>
	<path style="fill:#B4B1B3" d="M287.677,244.259c-3.43-4.322-6.566-8.887-9.376-13.668c-4.597,7.108-10.046,13.747-16.305,19.79   c-0.006,0.005-0.01,0.011-0.016,0.017c0.002,0.002,0.004,0.004,0.005,0.006c0.794,0.872,1.603,1.728,2.423,2.575   c0.173,0.18,0.349,0.357,0.523,0.536c0.757,0.774,1.523,1.539,2.302,2.291c0.065,0.063,0.13,0.128,0.195,0.191   c1.836,1.767,3.727,3.476,5.673,5.125c0.001,0.001,0.003,0.002,0.004,0.004C278.501,255.873,283.367,250.23,287.677,244.259z" data-original="#D4D2D3" class="" data-old_color="#D4D2D3"></path>
	<path style="fill:#B4B1B3" d="M261.998,90.746c6.258,6.042,11.707,12.68,16.303,19.787c2.81-4.781,5.946-9.346,9.376-13.668   c-4.309-5.971-9.175-11.613-14.572-16.866c0,0,0,0.001-0.001,0.001c-1.946,1.649-3.838,3.359-5.675,5.126   c-0.067,0.064-0.132,0.13-0.199,0.194c-0.778,0.752-1.543,1.517-2.3,2.291c-0.174,0.178-0.349,0.355-0.522,0.534   c-0.818,0.846-1.627,1.701-2.419,2.571c-0.003,0.003-0.006,0.007-0.009,0.01C261.986,90.733,261.991,90.74,261.998,90.746z" data-original="#D4D2D3" class="" data-old_color="#D4D2D3"></path>
</g></g> </svg>
